<?xml version="1.0" encoding="UTF-8"?>
<svg width="176px" height="49px" viewBox="0 0 176 49" version="1.1" xmlns="http://www.w3.org/2000/svg" xmlns:xlink="http://www.w3.org/1999/xlink">
    <!-- Generator: Sketch 48.2 (47327) - http://www.bohemiancoding.com/sketch -->
    <title>Logo</title>
    <desc>Created with Sketch.</desc>
    <defs>
        <linearGradient x1="84.2626462%" y1="15.7311404%" x2="15.6638158%" y2="84.3299708%" id="linearGradient-1">
            <stop stop-color="#99C637" offset="0%"></stop>
            <stop stop-color="#51B0C5" offset="100%"></stop>
        </linearGradient>
        <linearGradient x1="2.092%" y1="49.4076655%" x2="110.599444%" y2="50.8081882%" id="linearGradient-2">
            <stop stop-color="#51B0C5" offset="0%"></stop>
            <stop stop-color="#99C637" offset="100%"></stop>
        </linearGradient>
    </defs>
    <g id="1" stroke="none" stroke-width="1" fill="none" fill-rule="evenodd" transform="translate(-552.000000, -265.000000)">
        <g id="Group" transform="translate(465.000000, 238.000000)">
            <g id="Logo" transform="translate(87.000000, 27.000000)">
                <path d="M168.431643,35.0153285 C166.860852,35.0153285 165.325761,34.7291971 163.897769,34.1927007 C162.469777,33.6562044 161.113185,32.8335766 159.899391,31.7248175 L162.077079,29.149635 C163.076673,30.0080292 164.076268,30.6518248 165.075862,31.1167883 C166.075456,31.5817518 167.25355,31.7963504 168.538742,31.7963504 C169.645436,31.7963504 170.537931,31.5459854 171.180527,31.0810219 C171.823124,30.6160584 172.144422,29.9722628 172.144422,29.2211679 L172.144422,29.149635 C172.144422,28.7919708 172.073022,28.4343066 171.965923,28.1839416 C171.823124,27.8978102 171.608925,27.6474453 171.251927,27.3613139 C170.894929,27.1109489 170.430832,26.8605839 169.859635,26.6459854 C169.252738,26.4313869 168.467343,26.2167883 167.539148,26.0021898 C166.432454,25.7518248 165.46856,25.4656934 164.611765,25.1437956 C163.75497,24.8218978 163.040974,24.4284672 162.469777,23.9635036 C161.89858,23.4985401 161.434483,22.9262774 161.148884,22.2824818 C160.863286,21.6029197 160.684787,20.8160584 160.684787,19.8861314 L160.684787,19.8145985 C160.684787,18.920438 160.863286,18.1335766 161.220284,17.3824818 C161.577282,16.6671533 162.041379,16.0233577 162.648276,15.5226277 C163.255172,15.0218978 164.004868,14.5927007 164.861663,14.3065693 C165.718458,14.020438 166.646653,13.8773723 167.681947,13.8773723 C169.181339,13.8773723 170.537931,14.0919708 171.751724,14.5211679 C172.965517,14.950365 174.072211,15.5941606 175.143205,16.4525547 L173.215416,19.1708029 C172.287221,18.4912409 171.359026,17.9547445 170.430832,17.5970803 C169.502637,17.2394161 168.574442,17.0605839 167.646247,17.0605839 C166.575254,17.0605839 165.789858,17.3109489 165.182961,17.7759124 C164.611765,18.2408759 164.290467,18.8131387 164.290467,19.4927007 L164.290467,19.5642336 C164.290467,19.9576642 164.361866,20.3153285 164.504665,20.6014599 C164.647465,20.8875912 164.897363,21.1737226 165.254361,21.4240876 C165.611359,21.6744526 166.111156,21.8890511 166.753753,22.1036496 C167.396349,22.3182482 168.181744,22.5328467 169.181339,22.7832117 C170.252333,23.0693431 171.216227,23.3554745 172.037323,23.6773723 C172.858418,23.9992701 173.572414,24.4284672 174.107911,24.8934307 C174.643408,25.3583942 175.071805,25.9306569 175.357404,26.5744526 C175.643002,27.2182482 175.785801,27.9335766 175.785801,28.7919708 L175.785801,28.8635036 C175.785801,29.8291971 175.607302,30.6875912 175.250304,31.4386861 C174.893306,32.189781 174.393509,32.8335766 173.750913,33.370073 C173.108316,33.9065693 172.358621,34.3 171.466126,34.5861314 C170.466531,34.9080292 169.502637,35.0153285 168.431643,35.0153285 Z" id="Shape" fill="#274450" fill-rule="nonzero"></path>
                <polygon id="Shape" fill="#274450" fill-rule="nonzero" points="147.297363 17.5613139 140.8 17.5613139 140.8 14.1992701 157.436105 14.1992701 157.436105 17.5613139 150.903043 17.5613139 150.903043 34.7291971 147.297363 34.7291971"></polygon>
                <path d="M130.19716,35.0868613 C128.697769,35.0868613 127.305477,34.8007299 126.055984,34.2642336 C124.770791,33.7277372 123.699797,32.9766423 122.735903,32.0109489 C121.807708,31.0452555 121.058012,29.9364964 120.558215,28.6489051 C120.022718,27.3613139 119.772819,25.9664234 119.772819,24.5 L119.772819,24.4284672 C119.772819,22.9620438 120.022718,21.6029197 120.558215,20.3153285 C121.093712,19.0277372 121.807708,17.9189781 122.771602,16.9532847 C123.699797,15.9875912 124.842191,15.2364964 126.127383,14.6642336 C127.412576,14.0919708 128.840568,13.8416058 130.411359,13.8416058 C131.339554,13.8416058 132.196349,13.9131387 132.981744,14.0919708 C133.76714,14.2350365 134.445436,14.4854015 135.088032,14.7357664 C135.730629,15.0218978 136.337525,15.3437956 136.873022,15.7372263 C137.408519,16.1306569 137.944016,16.559854 138.408114,17.0248175 L136.087627,19.7072993 C135.266531,18.9562044 134.409736,18.3124088 133.481542,17.8474453 C132.553347,17.3824818 131.518053,17.1321168 130.339959,17.1321168 C129.376065,17.1321168 128.44787,17.3109489 127.626775,17.7043796 C126.80568,18.0978102 126.091684,18.5985401 125.484787,19.2423358 C124.87789,19.8861314 124.413793,20.6729927 124.092495,21.5313869 C123.771197,22.4255474 123.592698,23.3554745 123.592698,24.3569343 L123.592698,24.4284672 C123.592698,25.429927 123.771197,26.359854 124.092495,27.2540146 C124.413793,28.1481752 124.87789,28.9350365 125.484787,29.5788321 C126.091684,30.2583942 126.80568,30.7591241 127.626775,31.1525547 C128.44787,31.5459854 129.376065,31.7248175 130.339959,31.7248175 C131.589452,31.7248175 132.660446,31.4744526 133.552941,31.0094891 C134.445436,30.5445255 135.337931,29.8649635 136.230426,29.0423358 L138.550913,31.4029197 C138.015416,31.9751825 137.479919,32.4759124 136.908722,32.9051095 C136.337525,33.3343066 135.730629,33.7277372 135.052333,34.049635 C134.374037,34.3715328 133.660041,34.6218978 132.874645,34.8007299 C132.01785,35.0153285 131.161055,35.0868613 130.19716,35.0868613 Z" id="Shape" fill="#274450" fill-rule="nonzero"></path>
                <polygon id="Shape" fill="#274450" fill-rule="nonzero" points="101.030426 14.1992701 116.20284 14.1992701 116.20284 17.4540146 104.600406 17.4540146 104.600406 22.7474453 114.881947 22.7474453 114.881947 26.0021898 104.600406 26.0021898 104.600406 31.4744526 116.345639 31.4744526 116.345639 34.7291971 101.030426 34.7291971"></polygon>
                <path d="M32.2726166,35.0868613 C30.7018256,35.0868613 29.2381339,34.8007299 27.9529412,34.2642336 C26.6320487,33.6919708 25.525355,32.9408759 24.5971602,31.9751825 C23.6689655,31.0094891 22.9192698,29.9007299 22.3837728,28.6131387 C21.8482759,27.3255474 21.5983773,25.9664234 21.5983773,24.5357664 L21.5983773,24.4642336 C21.5983773,23.0335766 21.8482759,21.6386861 22.3837728,20.3868613 C22.9192698,19.0992701 23.6689655,17.9905109 24.5971602,17.0248175 C25.5610548,16.0591241 26.6677485,15.2722628 27.988641,14.7357664 C29.3095335,14.1635036 30.7375254,13.8773723 32.3083164,13.8773723 C33.8791075,13.8773723 35.3427992,14.1635036 36.6279919,14.7 C37.9488844,15.2722628 39.0555781,16.0233577 39.9837728,16.9890511 C40.9119675,17.9547445 41.6616633,19.0635036 42.1614604,20.3510949 C42.6969574,21.6386861 42.946856,22.9978102 42.946856,24.4284672 L42.946856,24.5 C42.946856,25.9306569 42.6969574,27.3255474 42.1614604,28.5773723 C41.6259635,29.8649635 40.8762677,30.9737226 39.948073,31.9394161 C38.9841785,32.9051095 37.8774848,33.6919708 36.5565923,34.2284672 C35.3070994,34.8007299 33.8791075,35.0868613 32.2726166,35.0868613 Z M32.3440162,31.7605839 C33.3436105,31.7605839 34.2718053,31.5817518 35.1286004,31.1883212 C35.9853955,30.7948905 36.6993915,30.2941606 37.306288,29.650365 C37.9131846,29.0065693 38.3772819,28.219708 38.6985801,27.3613139 C39.0555781,26.4671533 39.1983773,25.5372263 39.1983773,24.5357664 L39.1983773,24.4642336 C39.1983773,23.4627737 39.0198783,22.5328467 38.6985801,21.6386861 C38.3772819,20.7445255 37.8774848,19.9934307 37.2705882,19.3138686 C36.6636917,18.670073 35.9139959,18.1335766 35.0572008,17.740146 C34.2004057,17.3467153 33.272211,17.1678832 32.2726166,17.1678832 C31.2730223,17.1678832 30.3448276,17.3467153 29.4880325,17.740146 C28.6312373,18.1335766 27.9172414,18.6343066 27.3103448,19.2781022 C26.7034483,19.9218978 26.2393509,20.7087591 25.9180527,21.5671533 C25.5610548,22.4613139 25.4182556,23.3912409 25.4182556,24.3927007 L25.4182556,24.4642336 C25.4182556,25.4656934 25.5967546,26.3956204 25.9180527,27.289781 C26.2393509,28.1839416 26.7391481,28.9350365 27.3460446,29.6145985 C27.9529412,30.2583942 28.7026369,30.7948905 29.559432,31.1883212 C30.4162272,31.5817518 31.3444219,31.7605839 32.3440162,31.7605839 Z" id="Shape" fill="#274450" fill-rule="nonzero"></path>
                <path d="M10.4600406,35.0868613 C8.96064909,35.0868613 7.568357,34.8007299 6.3188641,34.2642336 C5.0336714,33.7277372 3.96267748,32.9766423 2.99878296,32.0109489 C2.07058824,31.0452555 1.32089249,29.9364964 0.785395538,28.6489051 C0.24989858,27.3613139 0,26.0021898 0,24.5357664 L0,24.4642336 C0,22.9978102 0.24989858,21.6386861 0.785395538,20.3510949 C1.32089249,19.0635036 2.03488844,17.9547445 2.96308316,16.9890511 C3.89127789,16.0233577 5.0336714,15.2722628 6.3188641,14.7 C7.6040568,14.1277372 9.03204868,13.8773723 10.6028398,13.8773723 C11.5310345,13.8773723 12.3878296,13.9489051 13.1732252,14.1277372 C13.9586207,14.2708029 14.6369168,14.5211679 15.2795132,14.7715328 C15.9221095,15.0576642 16.5290061,15.379562 17.064503,15.7729927 C17.6,16.1664234 18.135497,16.5956204 18.5995943,17.0605839 L16.2791075,19.7430657 C15.4580122,18.9919708 14.601217,18.3481752 13.6730223,17.8832117 C12.7448276,17.4182482 11.7095335,17.1678832 10.5314402,17.1678832 C9.56754564,17.1678832 8.63935091,17.3467153 7.81825558,17.740146 C6.99716024,18.1335766 6.2831643,18.6343066 5.67626775,19.2781022 C5.0693712,19.9218978 4.60527383,20.7087591 4.28397566,21.5671533 C3.96267748,22.4613139 3.7841785,23.3912409 3.7841785,24.3927007 L3.7841785,24.4642336 C3.7841785,25.4656934 3.96267748,26.3956204 4.28397566,27.289781 C4.60527383,28.1839416 5.0693712,28.9708029 5.67626775,29.6145985 C6.2831643,30.2941606 6.99716024,30.7948905 7.81825558,31.1883212 C8.63935091,31.5817518 9.56754564,31.7605839 10.5314402,31.7605839 C11.7809331,31.7605839 12.851927,31.510219 13.7444219,31.0452555 C14.6369168,30.580292 15.5294118,29.9007299 16.4219067,29.0781022 L18.7423935,31.4386861 C18.2068966,32.0109489 17.6713996,32.5116788 17.1002028,32.9408759 C16.5290061,33.370073 15.9221095,33.7635036 15.2438134,34.0854015 C14.5655172,34.4072993 13.8515213,34.6576642 13.0661258,34.8364964 C12.2807302,35.0153285 11.4239351,35.0868613 10.4600406,35.0868613 Z" id="Shape" fill="#274450" fill-rule="nonzero"></path>
                <path d="M71.2924949,0 C84.7870183,0 95.7111562,10.9445255 95.7111562,24.4642336 C95.7111562,37.9839416 84.7870183,48.9284672 71.2924949,48.9284672 C57.7979716,48.9284672 46.8738337,37.9839416 46.8738337,24.4642336 C46.8738337,10.9445255 57.7979716,0 71.2924949,0 Z M71.2924949,2.93284672 C83.1448276,2.93284672 92.7837728,12.5540146 92.7837728,24.4642336 C92.7837728,36.3386861 83.1805274,45.9956204 71.2924949,45.9956204 C59.4401623,45.9956204 49.801217,36.3744526 49.801217,24.4642336 C49.801217,12.589781 59.4044625,2.93284672 71.2924949,2.93284672 Z" id="Shape" fill="url(#linearGradient-1)" fill-rule="evenodd"></path>
                <polygon id="Shape" fill="url(#linearGradient-2)" fill-rule="nonzero" points="69.5075051 14.1992701 72.8275862 14.1992701 73.0774848 14.1992701 73.0774848 14.5211679 83.7874239 28.3985401 83.7874239 14.1992701 87.3574037 14.1992701 87.3574037 34.7291971 84.3586207 34.7291971 73.0774848 20.1364964 73.0774848 34.7291971 73.0774848 34.7291971 70.043002 34.7291971 69.5075051 34.7291971 69.5075051 34.0138686 58.7975659 20.1364964 58.7975659 34.7291971 55.2275862 34.7291971 55.2275862 14.1992701 58.5476673 14.1992701 69.5075051 28.3985401"></polygon>
            </g>
        </g>
    </g>
</svg>